<?xml version="1.0" encoding="UTF-8" standalone="no"?>
<svg
   xmlns:dc="http://purl.org/dc/elements/1.1/"
   xmlns:cc="http://creativecommons.org/ns#"
   xmlns:rdf="http://www.w3.org/1999/02/22-rdf-syntax-ns#"
   xmlns:svg="http://www.w3.org/2000/svg"
   xmlns="http://www.w3.org/2000/svg"
   version="1.1"
   height="201.69611"
   width="287.7388"
   id="SvgjsSvg1022">
  <metadata
     id="metadata33">
    <rdf:RDF>
      <cc:Work
         rdf:about="">
        <dc:format>image/svg+xml</dc:format>
        <dc:type
           rdf:resource="http://purl.org/dc/dcmitype/StillImage" />
        <dc:title></dc:title>
      </cc:Work>
    </rdf:RDF>
  </metadata>
  <defs
     id="SvgjsDefs1023" />
  <g
     transform="translate(-46.92995,-79.91015)"
     id="SvgjsG1024">
    <svg
       id="svg27"
       version="1.1"
       height="360"
       width="360"
       viewBox="0 0 1920 1080"
       enable-background="new 0 0 1920 1080">
      <path
         style="fill:#cce9ff;stroke-width:0.93039787"
         id="path3"
         class="colorcce9ff svgShape"
         d="M 327.61925,255.64648 V 1079.1968 H 1719.2069 V 255.64648 Z M 1610.7402,914.76636 H 862.24525 V 606.31951 h 748.49495 z m 0,-376.86631 H 862.24525 v -61.24194 h 748.49495 z m 0,-129.6614 H 862.24525 v -61.24194 h 748.49495 z" />
      <rect
         style="fill:#0b4870;stroke-width:0.93039787"
         id="rect5"
         class="color0b4870 svgShape"
         y="140.80618"
         x="327.61926"
         height="114.84029"
         width="1391.5878" />
      <rect
         style="fill:#ffbe55;stroke-width:0.93039787"
         id="rect7"
         class="colorffbe55 svgShape"
         y="955.7807"
         x="1364.3684"
         height="61.24194"
         width="246.37184" />
      <path
         style="fill:#0e538c;stroke-width:0.93039787"
         id="path9"
         class="color0e538c svgShape"
         d="m 721.64706,265.52722 c 4.17894,19.2954 9.19367,49.49691 8.72935,86.6895 -0.5572,44.9294 -8.54362,56.20836 -5.3862,83.05414 5.1076,43.99726 32.31716,62.82659 66.95594,108.96778 21.54477,28.71007 69.55617,92.56202 76.33535,149.98216 10.40092,88.36737 -73.73512,192.48799 -173.65827,231.7313 -133.63328,52.38657 -287.69695,-15.28718 -346.5736,-119.87387 -4.27181,-7.55038 -53.76905,-98.43454 -19.0374,-180.18367 7.05777,-16.49897 26.09517,-61.14873 66.12015,-74.38519 18.66594,-6.15216 27.30242,0 37.33188,-8.20288 24.4236,-20.13433 -1.57871,-68.60589 2.04304,-134.32212 4.73614,-84.45236 58.2266,-162.75256 109.85975,-179.7176 15.69425,-5.22002 34.73165,-11.46539 57.01934,-6.05895 16.80864,4.10144 23.30921,11.93146 42.25375,12.67718 18.29448,0.74572 22.93775,-6.15216 36.12463,-4.56751 10.40093,1.305 25.44512,7.92323 41.88229,34.20973 z" />
      <path
         style="fill:#ffbe55;stroke-width:0.93039787"
         id="path11"
         class="colorffbe55 svgShape"
         d="m 636.30377,499.49567 c 0,0 130.01154,19.2954 136.88358,65.43659 3.90034,26.37971 -8.54362,178.59903 -32.50289,233.59559 -23.95927,54.99657 6.87204,250.74705 25.63085,283.37215 H 434.41444 c 0,0 92.40105,-206.09731 76.9854,-279.92321 -15.41566,-73.8259 -63.33419,-211.22411 6.87204,-259.3228 70.20622,-48.09869 118.03189,-43.15832 118.03189,-43.15832 z" />
      <path
         style="fill:#fcd2b1;stroke-width:0.93039787"
         id="path13"
         class="colorfcd2b1 svgShape"
         d="m 571.29801,441.51623 2.1359,68.41946 c 0.74292,23.11721 19.5946,41.57368 42.71808,41.57368 v 0 c 23.77353,0 42.99667,-19.57505 42.71807,-43.43797 l -1.11438,-81.09663 z" />
      <path
         style="fill:#ffe3ca;stroke-width:0.93039787"
         id="path15"
         class="colorffe3ca svgShape"
         d="m 540.4667,312.69377 c 0,0 -41.13936,160.14254 59.89817,160.60862 42.81094,0.18643 66.77021,-18.92255 69.27758,-45.48869 0,0 38.53913,-12.02467 33.33867,-48.09869 -5.20046,-36.07402 -23.95927,-9.41467 -23.12348,-0.83893 0.83579,8.57573 -11.14385,12.8636 -10.30806,3.44893 0.83579,-9.41466 4.64327,-99.64632 -57.11221,-103.09526 0.0929,0 -41.13936,50.61549 -71.97067,33.46402 z" />
      <path
         style="fill:#ffbe55;stroke-width:0.93039787"
         id="path17"
         class="colorffbe55 svgShape"
         d="m 735.484,526.43466 c 0,0 71.59921,37.09938 150.62765,217.93556 C 953.43905,898.54704 769.47273,1081.9 769.47273,1081.9 h -62.86986 c 0,0 108.46676,-214.57983 113.57436,-238.62918 5.10759,-24.04934 -103.2663,-168.43864 -84.69323,-316.83616 z" />
      <polygon
         transform="matrix(0.92865381,0,0,0.93214522,61.6528,73.412088)"
         style="fill:#ffe3ca"
         id="polygon19"
         class="colorffe3ca svgShape"
         points="299.5,170.4 310,117.4 358.1,126.3 342.9,185.7 " />
      <path
         style="fill:#ffe3ca;stroke-width:0.93039787"
         id="path21"
         class="colorffe3ca svgShape"
         d="m 333.46977,170.16876 c -1.85731,-31.97258 25.90944,-75.130903 35.6603,-83.426996 9.75087,-8.296092 42.06802,-13.60932 41.51083,5.220013 -0.55719,18.829333 -0.65006,39.802603 -5.29333,53.039063 -2.69309,7.83002 -10.77238,25.26114 -1.67158,20.60041 9.10081,-4.66073 17.4587,-28.43043 25.44512,-21.1597 6.59344,6.05895 -6.9649,45.20905 -25.44512,58.63194 -10.21519,7.45716 -10.77238,10.71967 -24.79505,11.46538 -14.02267,0.74572 -42.43948,6.33859 -45.41117,-44.37011 z" />
      <path
         style="fill:#ffbe55;stroke-width:0.93039787"
         id="path23"
         class="colorffbe55 svgShape"
         d="m 339.87748,226.65676 c 0,0 -56.09069,170.20972 -44.11106,235.45988 11.97964,65.25017 187.58807,206.56338 187.58807,206.56338 l 44.57538,-132.55105 c 0,0 -109.85974,-37.56545 -142.36262,-72.98697 -32.50289,-35.42151 -0.83579,-231.17201 -0.83579,-231.17201 z" />
      <line
         style="fill:#0e538c"
         id="line25"
         y2="-78.099998"
         y1="-78.099998"
         x2="-574"
         x1="-574" />
    </svg>
  </g>
</svg>
