<?xml version="1.0" encoding="UTF-8" standalone="no"?>
<svg
   xmlns:dc="http://purl.org/dc/elements/1.1/"
   xmlns:cc="http://creativecommons.org/ns#"
   xmlns:rdf="http://www.w3.org/1999/02/22-rdf-syntax-ns#"
   xmlns:svg="http://www.w3.org/2000/svg"
   xmlns="http://www.w3.org/2000/svg"
   height="350.54407"
   width="550"
   version="1.1"
   viewBox="0 0 550 350.54407"
   data-name="Layer 1"
   id="Layer_1">
  <metadata
     id="metadata317">
    <rdf:RDF>
      <cc:Work
         rdf:about="">
        <dc:format>image/svg+xml</dc:format>
        <dc:type
           rdf:resource="http://purl.org/dc/dcmitype/StillImage" />
        <dc:title>lady at the office</dc:title>
      </cc:Work>
    </rdf:RDF>
  </metadata>
  <defs
     id="defs315" />
  <title
     id="title2">lady at the office</title>
  <path
     style="fill:#efedef"
     id="path4"
     d="M 406.03878,266.21525 C 447.30837,196.04969 470.64779,116.28157 381.66915,63.946571 292.69051,11.611571 108.60671,122.37478 67.337151,192.54035 c -41.26956,70.16557 75.902869,73.16322 164.881539,125.49822 88.97867,52.335 132.55046,18.34225 173.82009,-51.82332 z" />
  <path
     style="fill:#efedef"
     id="path6"
     d="m 441.75195,283.57826 -0.94726,-0.5586 c 26.8418,-45.63476 39.832,-83.82226 39.71094,-116.74219 -0.15332,-42.05273 -22.34766,-76.382809 -65.96582,-102.039059 -30.19922,-17.76172 -72.54,-19.83887 -122.44629,-6.00195 -82.8711,22.97558 -178.52344,89.520509 -208.873999,145.312499 l -0.96679,-0.52539 C 96.439481,176.964 126.61136,146.41615 165.04202,119.214 205.31644,90.706191 250.33694,68.674001 291.8096,57.175911 c 50.19922,-13.916 92.834,-11.80273 123.29883,6.11524 23.08594,13.57812 40.36719,29.64257 51.36426,47.745109 9.97461,16.41895 15.06933,35.00391 15.14355,55.23633 0.12107,33.12403 -12.91897,71.49512 -39.86429,117.30567 z" />
  <polygon
     transform="translate(-75.000389,-124.01983)"
     style="fill:#a2aee6"
     id="polygon8"
     points="92.481,414.835 140.321,414.835 135.337,473.013 97.465,473.013 " />
  <path
     style="fill:#4f66d0"
     id="path10"
     d="m 22.464221,348.99317 c 2.94033,-9.76648 5.99535,-19.49565 9.06775,-29.21915 1.51518,-4.8686 3.10482,-9.71292 4.65949,-14.56869 l 4.68675,-14.5598 a 0.54885,0.54885 0 0 1 1.04488,0 l 4.68768,14.55949 c 1.55319,4.85621 3.14592,9.6996 4.66044,14.56841 l 4.58812,14.59188 4.47774,14.62786 -4.99048,-14.461 -4.88,-14.49692 c -1.64161,-4.82745 -3.205,-9.68034 -4.8078,-14.5204 l -4.78055,-14.52931 h 1.04475 l -4.78142,14.529 c -1.60146,4.8405 -3.16787,9.69244 -4.80874,14.52011 -3.23968,9.6691 -6.49684,19.33252 -9.86861,28.95852 z" />
  <path
     style="fill:#4f66d0"
     id="path12"
     d="m 17.480981,290.81547 c 4.19637,9.61 8.28129,19.26585 12.34929,28.92866 l 6.05248,14.51456 6.026,14.52549 h -1.01614 l 6.0251,-14.52586 c 2.01738,-4.8382 3.99642,-9.6922 6.05154,-14.51493 l 6.12184,-14.486 6.22933,-14.44187 -5.73056,14.64694 -5.838,14.60275 c -1.93145,4.87354 -3.939,9.7158 -5.90821,14.57387 l -5.93479,14.563 a 0.5487,0.5487 0 0 1 -1.01627,0 l -5.93398,-14.56342 -5.90733,-14.57424 c -3.90521,-9.72972 -7.79355,-19.46641 -11.5703,-29.24895 z" />
  <path
     style="fill:#4f66d0"
     id="path14"
     d="m 19.972611,322.89428 c 3.57137,-0.22685 7.14268,-0.33313 10.71405,-0.42113 3.57131,-0.10056 7.14268,-0.11472 10.71406,-0.12854 3.57131,0.0123 7.14268,0.0269 10.714,0.12661 l 5.357,0.15345 c 1.78569,0.0914 3.57138,0.1449 5.35706,0.26961 -1.78568,0.12473 -3.57137,0.17825 -5.35706,0.26963 l -5.357,0.15344 c -3.57131,0.0997 -7.14268,0.11427 -10.714,0.12661 -3.57138,-0.0138 -7.14275,-0.028 -10.71406,-0.12854 -3.57141,-0.088 -7.14272,-0.19425 -10.71405,-0.42114 z" />
  <rect
     style="fill:#4f66d0"
     id="rect16"
     rx="1.41966"
     height="5.2582302"
     width="52.002079"
     y="285.55722"
     x="15.399612" />
  <rect
     style="fill:#dc8758"
     id="rect18"
     rx="4.8653498"
     height="18.668501"
     width="18.668501"
     y="0"
     x="136.86166" />
  <polygon
     transform="translate(-75.000389,-124.01983)"
     style="fill:#dc8758"
     id="polygon20"
     points="193.582,335.821 209.02,339.977 170.498,473.564 162.937,473.564 " />
  <polygon
     transform="translate(-75.000389,-124.01983)"
     style="fill:#dc8758"
     id="polygon22"
     points="249.733,335.821 234.296,339.977 272.817,473.564 280.378,473.564 " />
  <rect
     style="fill:#ffe3cb"
     id="rect24"
     rx="3.2435701"
     height="219.70042"
     width="261.43979"
     y="11.020454"
     x="15.227898" />
  <path
     style="fill:#904d24"
     id="path26"
     d="m 168.4983,50.517771 a 1.18112,1.18112 0 0 1 -0.0854,-2.359 l 21.65944,-1.59251 a 1.181,1.181 0 1 1 0.173,2.35559 l -21.65944,1.59251 c -0.0294,0.002 -0.0588,0.003 -0.0876,0.003 z" />
  <path
     style="fill:#904d24"
     id="path28"
     d="m 190.15889,56.584401 h -21.65944 a 1.18126,1.18126 0 0 1 0,-2.36252 h 21.65944 a 1.18126,1.18126 0 0 1 0,2.36252 z" />
  <path
     style="fill:#904d24"
     id="path30"
     d="m 190.15889,64.242951 h -21.65944 a 1.18126,1.18126 0 1 1 0,-2.36251 h 21.65944 a 1.18126,1.18126 0 1 1 0,2.36251 z" />
  <path
     style="fill:#904d24"
     id="path32"
     d="m 190.15889,69.390171 h -21.65944 a 1.18126,1.18126 0 0 1 0,-2.36252 h 21.65944 a 1.18126,1.18126 0 0 1 0,2.36252 z" />
  <path
     style="fill:#904d24"
     id="path34"
     d="m 65.818391,196.6025 a 1.18131,1.18131 0 0 1 -1.18126,-1.18125 V 47.744011 a 1.18126,1.18126 0 0 1 2.36252,0 V 195.42125 a 1.18132,1.18132 0 0 1 -1.18126,1.18125 z" />
  <path
     style="fill:#904d24"
     id="path36"
     d="M 251.6892,171.72229 H 40.206201 a 1.18126,1.18126 0 0 1 0,-2.36251 H 251.6892 a 1.18126,1.18126 0 1 1 0,2.36251 z" />
  <path
     style="fill:#904d24"
     id="path38"
     d="m 76.794041,157.36091 a 1.18127,1.18127 0 0 1 -0.98285,-1.83475 l 21.22167,-31.94468 a 1.20525,1.20525 0 0 1 1.06532,-0.52488 1.18137,1.18137 0 0 1 0.98342,0.66677 l 10.664759,22.18259 28.92463,-57.806589 a 1.16415,1.16415 0 0 1 1.17261,-0.64715 1.18071,1.18071 0 0 1 1.02322,0.86287 l 10.21948,37.263799 8.83462,-15.61762 a 1.1815,1.1815 0 0 1 2.11219,0.11132 l 11.97983,27.61417 8.50874,-23.88872 a 1.17984,1.17984 0 0 1 0.98572,-0.77808 1.167,1.167 0 0 1 1.12935,0.54968 l 8.39915,13.48755 29.78981,-59.377749 a 1.18123,1.18123 0 0 1 2.16467,0.1217 l 5.67557,15.429 19.981,-37.46567 a 1.18129,1.18129 0 0 1 2.0845,1.112 l -21.22166,39.7919 a 1.18129,1.18129 0 0 1 -2.15083,-0.14824 l -5.64443,-15.34364 -29.51122,58.822879 a 1.18182,1.18182 0 0 1 -1.00187,0.65061 1.21115,1.21115 0 0 1 -1.05668,-0.55544 l -8.21919,-13.198 -8.69215,24.40378 a 1.18112,1.18112 0 0 1 -2.1964,0.0738 l -12.22727,-28.18519 -9.07687,16.04559 a 1.18152,1.18152 0 0 1 -2.16756,-0.26878 l -10.16123,-37.051539 -28.6224,57.202109 a 1.25812,1.25812 0 0 1 -1.0659,0.65292 1.18135,1.18135 0 0 1 -1.05552,-0.66964 l -10.808379,-22.48137 -20.0727,30.2149 a 1.17956,1.17956 0 0 1 -0.98515,0.52776 z" />
  <path
     style="fill:#904d24"
     id="path40"
     d="m 45.328671,139.75685 a 1.18132,1.18132 0 0 1 -1.18126,-1.18126 V 68.208931 a 1.18126,1.18126 0 1 1 2.36251,0 v 70.366659 a 1.18132,1.18132 0 0 1 -1.18125,1.18126 z" />
  <path
     style="fill:#904d24"
     id="path42"
     d="m 205.5879,190.20076 h -0.0173 L 95.072941,188.64402 a 1.18144,1.18144 0 0 1 -1.16453,-1.198 1.19911,1.19911 0 0 1 1.198,-1.16453 l 110.497649,1.55674 a 1.18131,1.18131 0 0 1 -0.0161,2.36251 z" />
  <rect
     style="fill:#dc8758"
     id="rect44"
     rx="2.5132301"
     height="11.89029"
     width="87.102112"
     y="222.54721"
     x="103.06327" />
  <path
     style="fill:#c0d6f2"
     id="path46"
     d="M 120.89534,72.960671 H 98.711221 a 1.1,1.1 0 0 1 -1.1,-1.1 v -28.02362 a 1.1,1.1 0 0 1 1.1,-1.1 h 30.752999 a 1.1,1.1 0 0 1 1.1,1.1 v 20.39012 z" />
  <polygon
     transform="translate(-75.000389,-124.01983)"
     style="fill:#a2aee6"
     id="polygon48"
     points="195.896,196.98 205.565,188.281 195.896,188.281 " />
  <rect
     style="fill:#a2aee6"
     id="rect50"
     rx="1.1"
     height="5.9400001"
     width="12.078"
     y="39.907097"
     x="107.49734" />
  <rect
     style="fill:#a2aee6"
     id="rect52"
     height="1.1"
     width="15.44404"
     y="53.018852"
     x="106.33143" />
  <rect
     style="fill:#a2aee6"
     id="rect54"
     height="1.1"
     width="15.44404"
     y="59.618858"
     x="106.33143" />
  <polygon
     transform="translate(-75.000389,-124.01983)"
     style="fill:#935b50"
     id="polygon56"
     points="417.337,336.707 477.49,336.707 477.6,370.352 417.337,370.352 " />
  <rect
     style="fill:#d6694b"
     id="rect58"
     rx="7.25109"
     height="81.792267"
     width="86.432961"
     y="127.31786"
     x="328.96066" />
  <rect
     style="fill:#d6694b"
     id="rect60"
     rx="1.6113501"
     height="9.9581604"
     width="96.874527"
     y="236.37421"
     x="323.73987" />
  <rect
     style="fill:#935b50"
     id="rect62"
     rx="1.6113501"
     height="6.2842798"
     width="83.822571"
     y="246.33237"
     x="330.12085" />
  <rect
     style="fill:#d6694b"
     id="rect64"
     height="62.649399"
     width="9.2813902"
     y="252.61667"
     x="367.2464" />
  <polygon
     transform="translate(-75.000389,-124.01983)"
     style="fill:#935b50"
     id="polygon66"
     points="511.04,457.688 451.528,439.286 442.247,439.286 382.687,457.688 382.687,465.229 442.247,444.262 451.528,444.262 511.04,465.229 " />
  <rect
     style="fill:#e19974"
     id="rect68"
     rx="1.6113501"
     height="9.8614798"
     width="13.63204"
     y="312.94571"
     x="365.07108" />
  <rect
     style="fill:#935b50"
     id="rect70"
     height="144.93568"
     width="9.1371098"
     y="204.70035"
     x="500.17221" />
  <rect
     style="fill:#935b50"
     id="rect72"
     rx="1.57523"
     height="7.00771"
     width="274.58176"
     y="197.69263"
     x="252.22083" />
  <rect
     style="fill:#935b50"
     id="rect74"
     height="144.93568"
     width="9.1371098"
     y="204.70035"
     x="270.44296" />
  <path
     style="fill:#c38f86"
     id="path76"
     d="m 263.15411,204.70035 h 253.33993 v 18.15947 a 3.15046,3.15046 0 0 1 -3.15046,3.15046 H 266.30461 a 3.15046,3.15046 0 0 1 -3.15046,-3.15046 v -18.15947 z" />
  <path
     style="fill:#fec165"
     id="path78"
     d="m 514.18261,197.58317 a 0.56688,0.56688 0 0 1 -0.0703,-0.005 0.43735,0.43735 0 0 1 -0.36231,-0.501 c 0.10645,-0.66113 10.26367,-66.50195 -18.86035,-96.748 C 483.22365,88.211981 466.72949,83.314521 445.875,85.768631 v 18.551749 a 0.43653,0.43653 0 1 1 -0.87305,0 V 85.380871 a 0.43683,0.43683 0 0 1 0.38379,-0.43359 c 21.332,-2.5918 38.19532,2.37695 50.13477,14.77734 29.4248,30.560549 19.19922,96.825199 19.09277,97.491209 a 0.43747,0.43747 0 0 1 -0.43067,0.36734 z" />
  <path
     style="fill:#fec165"
     id="path80"
     d="m 423.83607,124.07853 h 44.75037 a 22.53075,22.53075 0 0 0 -44.75037,0 z" />
  <path
     style="fill:#fec165"
     id="path82"
     d="m 517.68852,197.69263 h -27.66863 v -0.997 a 0.87353,0.87353 0 0 1 0.87353,-0.87353 h 25.92157 a 0.87353,0.87353 0 0 1 0.87353,0.87353 z" />
  <polygon
     transform="translate(-75.000389,-124.01983)"
     style="fill:#e19974"
     id="polygon84"
     points="539.462,293.456 566.185,293.456 560.806,321.728 544.841,321.728 " />
  <polygon
     transform="translate(-75.000389,-124.01983)"
     style="fill:#d6694b"
     id="polygon86"
     points="539.462,293.456 540.076,296.684 565.571,296.684 566.185,293.456 " />
  <rect
     style="fill:#d6694b"
     id="rect88"
     transform="rotate(45)"
     height="4.76931"
     width="4.76931"
     y="-203.50458"
     x="462.75552" />
  <rect
     style="fill:#d6694b"
     id="rect90"
     transform="rotate(45)"
     height="4.76931"
     width="4.76931"
     y="-208.2739"
     x="467.52484" />
  <rect
     style="fill:#d6694b"
     id="rect92"
     transform="rotate(45)"
     height="4.76931"
     width="4.76931"
     y="-212.98828"
     x="472.2392" />
  <path
     style="fill:#558031"
     id="path94"
     d="m 484.04185,145.64388 c 0,0 1.40188,19.80513 -6.81465,24.00238 0,0 -2.84454,-7.5088 6.81465,-24.00238 z" />
  <path
     style="fill:#849f4c"
     id="path96"
     d="m 457.52866,154.15131 c 0,0 13.44186,2.31926 19.69854,15.495 0,-5e-5 -14.78146,-5.02044 -19.69854,-15.495 z" />
  <path
     style="fill:#a6b862"
     id="path98"
     d="m 462.29479,180.09338 c 0,0 6.8361,-10.22708 14.93241,-10.44712 0,0 -1.21886,8.23468 -14.93241,10.44712 z" />
  <path
     style="fill:#849f4c"
     id="path100"
     d="m 470.72724,148.46688 c 0,0 9.48512,8.66025 6.5,21.17938 -4e-5,0 -5.25445,-5.56961 -6.5,-21.17938 z" />
  <path
     style="fill:#a6b862"
     id="path102"
     d="m 477.2272,169.64626 c 0,0 3.33247,-12.19879 20.17889,-15.32689 0,0 -3.79119,11.1072 -20.17889,15.32689 z" />
  <path
     style="fill:#849f4c"
     id="path104"
     d="m 501.86874,166.45741 c 0,0 -12.85334,-5.2989 -24.64154,3.18885 0,0 15.67115,1.88147 24.64154,-3.18885 z" />
  <path
     style="fill:#558031"
     id="path106"
     d="m 501.75181,178.79381 c 0,0 -6.20627,-9.941 -24.52461,-9.14755 z" />
  <path
     style="fill:#558031"
     id="path108"
     d="m 450.60522,168.03717 c 0,0 16.88044,-6.25921 26.84288,1.30983 0,-2e-5 -9.4596,5.21043 -26.84288,-1.30983 z" />
  <path
     style="fill:#558031"
     id="path110"
     d="m 464.44761,149.91307 c 0,0 15.06248,10.65325 12.90175,19.74185 -10e-6,0 -10.44989,-8.37859 -12.90175,-19.74185 z" />
  <path
     style="fill:#849f4c"
     id="path112"
     d="m 490.86994,180.24986 c 0,0 -12.41731,-2.1199 -13.64274,-10.6036 0,0 9.07297,0.44938 13.64274,10.6036 z" />
  <path
     style="fill:#f65b2b"
     id="path114"
     d="m 449.00417,193.71746 v 0.374 a 3.59762,3.59762 0 0 1 -3.59631,3.59631 h -10.80332 a 3.59763,3.59763 0 0 1 -3.59631,-3.59631 v -14.55785 a 3.59763,3.59763 0 0 1 3.59631,-3.59632 h 10.80332 a 3.59762,3.59762 0 0 1 3.59631,3.59632 z" />
  <path
     style="fill:#4f66d0"
     id="path116"
     d="m 454.95954,179.64858 h -5.95534 v 2.15778 h 4.87641 v 9.75324 h -4.87645 v 2.15779 h 5.95534 a 1.07738,1.07738 0 0 0 1.07889,-1.07889 v -11.911 a 1.07748,1.07748 0 0 0 -1.07885,-1.07892 z" />
  <rect
     style="fill:#ffba55"
     id="rect118"
     rx="0.71925998"
     height="4.4696598"
     width="4.4696598"
     y="183.38342"
     x="440.0062" />
  <rect
     style="fill:#e5caf3"
     id="rect120"
     height="7.4453101"
     width="1.0117199"
     y="175.93762"
     x="441.73532" />
  <path
     style="fill:#a2aee6"
     id="path122"
     d="m 401.24996,193.19002 h -59.65122 a 6.04258,6.04258 0 0 1 -6.02447,-5.57517 l -3.09076,-39.83763 a 6.04257,6.04257 0 0 1 6.02446,-6.51 h 65.83276 a 6.04258,6.04258 0 0 1 6.02447,6.51 l -3.09077,39.83763 a 6.04258,6.04258 0 0 1 -6.02447,5.57517 z" />
  <ellipse
     style="fill:#4f66d0"
     id="ellipse124"
     ry="2.3916399"
     rx="6.5743198"
     cy="167.22864"
     cx="371.42435" />
  <rect
     style="fill:#4f66d0"
     id="rect126"
     rx="2.2513101"
     height="4.5026202"
     width="68.675362"
     y="193.19"
     x="337.08667" />
  <rect
     style="fill:#d6694b"
     id="rect128"
     rx="2.01419"
     height="15.66235"
     width="8.8463297"
     y="333.50754"
     x="299.53735" />
  <rect
     style="fill:#d6694b"
     id="rect130"
     transform="scale(-1)"
     rx="2.01419"
     height="15.66235"
     width="8.8463297"
     y="-349.16986"
     x="-444.18851" />
  <path
     style="fill:#160b07"
     id="path132"
     d="m 261.61146,68.028451 c -4.19187,4.40317 -21.75935,0.78892 -15.27645,-2.6032 -1.80363,-0.28175 -3.26651,-0.43363 -4.63132,-0.78893 -9.06654,-2.36012 -18.52893,-14.95147 -15.63785,-24.76412 2.5197,-8.55223 13.51043,-11.8957 16.18436,-12.7093 a 20.82641,20.82641 0 0 1 20.01694,3.512 23.73958,23.73958 0 0 1 7.34345,10.36966 c 1.56661,3.9909 1.55773,16.94529 -7.99913,26.98389 z" />
  <path
     style="fill:#0aa8a7;fill-opacity:1"
     id="path134"
     d="m 289.22568,106.77617 c 0,0 -10.04616,46.87545 16.54364,108.13834 10.90154,25.11717 19.88442,32.79186 19.88442,32.79186 0,0 -9.94563,-7.32584 -18.75237,2.44195 -8.80674,9.76779 -22.76073,7.91107 -22.76073,7.91107 L 269.17531,106.77617 Z" />
  <path
     style="fill:#065082"
     id="path136"
     d="m 318.89608,239.28383 a 14.54,14.54 0 0 0 -8.24414,0.33264 12.98719,12.98719 0 0 0 -3.69653,1.94055 19.687,19.687 0 0 0 -3.02075,2.94067 21.04959,21.04959 0 0 1 -6.90161,4.94642 24.80546,24.80546 0 0 1 -8.22437,2.08264 l -0.006,-0.0481 a 34.65929,34.65929 0 0 0 8.0232,-2.489 24.92,24.92 0 0 0 6.91968,-4.67761 20.17869,20.17869 0 0 1 6.76831,-5.07239 12.00017,12.00017 0 0 1 8.39624,-0.002 z" />
  <path
     style="fill:#f9977a"
     id="path138"
     d="m 237.37603,71.955171 -4.59113,0.89918 5.20907,16.41445 21.561,-0.9832 9.62039,-14.81474 c 0,0 -15.9476,-1.68718 -18.1952,-9.08494 z" />
  <path
     style="fill:#0aa8a7;fill-opacity:1"
     id="path140"
     d="m 194.72517,71.341241 -12.32737,0.56213 a 1.42711,1.42711 0 0 1 -1.48259,-1.261 l -0.19617,-1.6888 -3.19778,-27.52828 a 1.42711,1.42711 0 0 1 1.35257,-1.59029 l 12.202,-0.55642 a 1.42711,1.42711 0 0 1 1.48187,1.25492 l 3.168,26.29508 0.35134,2.91628 a 1.42711,1.42711 0 0 1 -1.35187,1.59638 z" />
  <path
     style="fill:#f9977a"
     id="path142"
     d="m 176.8052,73.515521 a 57.837,57.837 0 0 1 -3.85094,-19.35583 c 0,0 1.37146,-7.35555 12.62317,-5.48625 a 3.53,3.53 0 0 1 2.878,2.70991 c 0.42711,1.92088 0.58821,4.65034 -1.1888,6.48884 l -6.35345,6.28183 0.51315,4.41743 a 0.96528,0.96528 0 0 0 1.15322,0.83776 c 1.33269,-0.27741 3.56983,-0.58064 4.26706,0.31169 a 1.41339,1.41339 0 0 1 -0.67882,2.34448 z" />
  <path
     style="fill:#dd765e"
     id="path144"
     d="m 176.40902,53.342541 a 5.12539,5.12539 0 0 1 2.40455,-2.02661 13.65655,13.65655 0 0 1 3.02026,-0.9884 21.11274,21.11274 0 0 1 3.13574,-0.3772 22.28454,22.28454 0 0 1 3.14429,0.0839 c -2.07886,0.28614 -4.13916,0.483 -6.15381,0.90284 a 20.54813,20.54813 0 0 0 -2.95435,0.82336 6.44364,6.44364 0 0 0 -2.59668,1.58215 z" />
  <path
     style="fill:#dd765e"
     id="path146"
     d="m 176.56796,56.827411 a 8.51778,8.51778 0 0 1 2.43408,-2.285 12.6263,12.6263 0 0 1 3.05542,-1.41894 14.34161,14.34161 0 0 1 3.31445,-0.56116 16.36018,16.36018 0 0 1 1.67408,0.008 c 0.55517,0.0568 1.10815,0.1228 1.654,0.212 -1.11084,0.0575 -2.20361,0.116 -3.28345,0.26416 a 21.02156,21.02156 0 0 0 -3.17773,0.6726 17.20064,17.20064 0 0 0 -2.9895,1.23975 12.97648,12.97648 0 0 0 -2.68135,1.8689 z" />
  <path
     style="fill:#dd765e"
     id="path148"
     d="m 178.77816,59.345721 a 18.58041,18.58041 0 0 1 4.42115,-2.8833 12.95133,12.95133 0 0 1 2.51,-0.89441 4.97846,4.97846 0 0 1 2.65527,-0.0344 7.13344,7.13344 0 0 0 -2.52124,0.50171 24.4359,24.4359 0 0 0 -2.3811,0.99121 c -1.56884,0.72718 -3.09741,1.54895 -4.68408,2.31922 z" />
  <path
     style="fill:#f9977a"
     id="path150"
     d="m 195.38393,105.69329 -9.21611,-33.627919 -9.36263,1.45014 c 2.158,47.323129 9.85136,51.579529 9.85136,51.579529 5.46008,6.10679 36.21078,-17.86131 36.21078,-17.86131 l 2.1627,-29.027999 c -1.47335,-1.67888 -29.6461,27.487559 -29.6461,27.487559 z" />
  <path
     style="fill:#f9977a"
     id="path152"
     d="m 272.46309,102.31571 c 0,0 22.68811,22.05975 24.06131,20.298 l 17.49144,3.269 c 0,0 -13.97725,-41.035259 -39.84565,-50.008219 z" />
  <path
     style="fill:#f9977a"
     id="path154"
     d="m 281.75314,113.959 19.41821,-14.504829 c -14.29006,-20.474 -22.61814,-21.70522 -22.62008,-21.70613 v -6e-5 c 0,0 -9.00745,-5.59483 -16.09849,-5.38788 a 16.85382,16.85382 0 0 1 -15.279,12.10428 c -12.52961,0.92062 -10.56742,-12.20611 -10.56742,-12.20611 l 1.28666,-0.16637 a 6.15872,6.15872 0 0 0 1.13367,-0.26 c -6.48376,0.69128 -12.85985,2.32583 -16.96107,5.74557 v 0 c -4.20953,1.50154 -3.96205,36.561359 -0.48769,33.459999 v 0 l -6.9e-4,-0.005 a 63.73226,63.73226 0 0 0 5.7707,17.28875 l 3.59767,34.31219 45.02142,-2.10769 c 0,0 -6.49915,-34.47961 0.952,-52.72581 z" />
  <path
     style="fill:#a96490;fill-opacity:1"
     id="path156"
     d="M 288.37523,116.77448 302.59061,106.156 a 3.398,3.398 0 0 0 0.69651,-4.73722 131.78937,131.78937 0 0 0 -18.86938,-21.126439 28.56049,28.56049 0 0 0 -9.81064,-5.59978 c -3.56686,-1.18345 -8.32489,-2.44422 -12.15433,-2.33246 a 16.85382,16.85382 0 0 1 -15.279,12.10428 c -12.52961,0.92062 -9.7977,-12.50918 -9.7977,-12.50918 0,0 -8.53446,1.17216 -14.40034,4.46606 -3.2949,1.8502 -18.019,16.50122 -22.48994,20.984 a 1.93659,1.93659 0 0 0 -0.0691,2.661429 l 12.1293,13.52153 a 4.12181,4.12181 0 0 0 5.813,0.32264 l 3.219,-2.87335 -6.9e-4,-0.005 c 0.76342,4.19925 0.0419,21.28208 3.42632,27.909 l 48.72714,3.32849 c 0,0 -1.69072,-21.78625 3.109,-34.07292 l 6.93333,8.07007 a 3.3916,3.3916 0 0 0 4.60218,0.50703 z" />
  <path
     style="fill:#dd765e"
     id="path158"
     d="m 238.3159,66.108401 c 0,0 5.8628,4.28325 12.5937,-1.11027 0,0 -2.23118,9.43479 -13.53357,6.95707 a 6.72039,6.72039 0 0 0 0.93987,-5.8468 z" />
  <path
     style="fill:#f9977a"
     id="path160"
     d="m 232.33782,45.230521 c 2.2016,-10.81788 9.97938,-18.36779 17.37214,-16.86326 5.70591,1.16125 9.51129,7.37857 9.94011,15.12863 a 2.10872,2.10872 0 0 1 1.77237,-0.25724 c 1.60574,0.59671 1.94384,3.67335 0.75518,6.87178 -1.00355,2.70047 -2.77352,4.61712 -4.2671,4.7916 -3.11863,8.48153 -9.788,13.93961 -16.17329,12.64014 -7.39277,-1.50459 -11.60103,-11.49382 -9.39941,-22.31165 z" />
  <path
     style="fill:#dd765e"
     id="path162"
     d="m 241.24106,44.356581 a 6.14564,6.14564 0 0 1 0.0212,3.9115 14.20662,14.20662 0 0 1 -1.606,3.61975 c -0.35913,0.56653 -0.91528,1.01489 -0.83032,1.53418 a 2.23409,2.23409 0 0 0 0.95752,1.41614 4.821,4.821 0 0 0 3.66333,0.49023 4.49125,4.49125 0 0 1 -3.89063,-0.15905 2.48909,2.48909 0 0 1 -1.20312,-1.70179 1.52057,1.52057 0 0 1 0.31128,-1.07568 l 0.56054,-0.79712 a 15.60324,15.60324 0 0 0 1.65918,-3.45618 7.0039,7.0039 0 0 0 0.35698,-3.78198 z" />
  <path
     style="fill:#160b07"
     id="path164"
     d="m 252.78942,47.041871 a 0.52194,0.52194 0 0 0 0.27714,-0.84621 c -0.13072,-0.15408 -3.25131,-3.75794 -7.48455,-3.014 a 0.52204002,0.52204002 0 1 0 0.18061,1.02834 c 3.65095,-0.6415 6.48025,2.62877 6.50852,2.66191 a 0.52216,0.52216 0 0 0 0.51828,0.16996 z" />
  <path
     style="fill:#160b07"
     id="path166"
     d="m 239.07955,43.182261 a 0.52221,0.52221 0 0 0 0.0652,-0.99683 10.075,10.075 0 0 0 -6.31179,-0.0995 0.52211434,0.52211434 0 0 0 0.34742,0.98474 9.11306,9.11306 0 0 1 5.59474,0.0918 0.52242,0.52242 0 0 0 0.30439,0.0198 z" />
  <path
     style="fill:#160b07"
     id="path168"
     d="m 251.68661,49.325171 a 9.46865,9.46865 0 0 0 -3.46094,-1.75549 4.58755,4.58755 0 0 0 -1.87768,-0.0347 6.27818,6.27818 0 0 0 -1.82373,0.70276 4.05911,4.05911 0 0 1 1.72485,-1.09217 3.96228,3.96228 0 0 1 2.08863,-0.0857 5.4698,5.4698 0 0 1 1.88891,0.85059 5.82008,5.82008 0 0 1 1.45996,1.41467 z" />
  <circle
     style="fill:#160b07"
     id="circle170"
     r="1.17099"
     cy="48.369118"
     cx="246.98062" />
  <circle
     style="fill:#160b07"
     id="circle172"
     r="1.17099"
     cy="46.976509"
     cx="235.83725" />
  <path
     style="fill:#160b07"
     id="path174"
     d="m 239.73788,48.177871 a 9.46865,9.46865 0 0 0 -3.46094,-1.75549 4.58772,4.58772 0 0 0 -1.87768,-0.0347 6.27847,6.27847 0 0 0 -1.82373,0.70276 4.05911,4.05911 0 0 1 1.72485,-1.09217 3.961,3.961 0 0 1 2.08862,-0.0857 5.46976,5.46976 0 0 1 1.88892,0.85059 5.82008,5.82008 0 0 1 1.45996,1.41467 z" />
  <path
     style="fill:#dd765e"
     id="path176"
     d="m 261.61142,46.980241 a 5.10632,5.10632 0 0 0 -0.82837,-1.03943 0.74562,0.74562 0 0 0 -0.95948,-0.12647 3.50416,3.50416 0 0 0 -0.87622,0.88343 c -0.28076,0.347 -0.50952,0.73962 -0.81176,1.10376 a 5.23376,5.23376 0 0 1 0.47339,-1.32007 2.69707,2.69707 0 0 1 0.95605,-1.12048 1.0947,1.0947 0 0 1 0.83228,-0.14563 1.217,1.217 0 0 1 0.67236,0.44677 2.633,2.633 0 0 1 0.54175,1.31812 z" />
  <path
     style="fill:#dd765e"
     id="path178"
     d="m 259.69613,50.523331 a 2.58268,2.58268 0 0 1 -0.54126,-1.2273 4.48306,4.48306 0 0 1 -0.0476,-1.34741 5.70293,5.70293 0 0 1 0.29785,-1.30273 l 0.25268,-0.61475 c 0.11328,-0.1936 0.209,-0.39172 0.3357,-0.57605 -0.11377,0.88379 -0.2876,1.71082 -0.36719,2.54773 a 11.06281,11.06281 0 0 0 -0.0737,1.25195 5.50852,5.50852 0 0 0 0.14355,1.26856 z" />
  <circle
     style="fill:#ffcb33"
     id="circle180"
     r="2.32429"
     cy="53.416985"
     cx="260.29199" />
  <path
     style="fill:#dd2f22"
     id="path182"
     d="m 246.83606,59.453171 c 0,0 -6.52131,4.08458 -10.22185,-0.44177" />
  <path
     style="fill:#160b07"
     id="path218"
     d="m 243.91789,30.138511 c 1.62566,0.38982 2.525,1.63634 4.32375,4.12933 3.47452,4.81565 5.5328,11.43777 7.93753,12.61157 a 1.48357,1.48357 0 0 0 0.87922,0.17857 c 0.94059,-0.13755 1.31959,-1.35575 2.36522,-3.06994 0.79018,-1.29544 1.134,-1.51821 1.59458,-2.244 a 10.47234,10.47234 0 0 0 0.472,-9.44754 11.09541,11.09541 0 0 0 -6.101,-5.38354 c -5.47853,-2.34618 -10.77352,-0.29677 -12.11639,0.223 -8.06775,3.12261 -11.5122,11.10979 -11.22706,11.34482 0.33523,0.27626 6.45387,-9.64151 11.87215,-8.34227 z" />
  <path
     style="fill:#ed9c8c"
     id="path220"
     d="m 291.24075,324.66891 c 0,0 5.1691,19.0844 3.77464,19.784 -1.39446,0.6996 -38.85047,5.52606 -32.52786,1.78788 l 10.54611,-5.51076 a 10.82757,10.82757 0 0 0 5.79608,-10.20269 l -0.346,-6.17007 z" />
  <path
     style="fill:#f73943"
     id="path222"
     d="m 263.8253,345.54172 10.361,-1.20483 a 25.85629,25.85629 0 0 0 -2.7931,-2.5991 1.14489,1.14489 0 0 1 0.20338,-1.90437 1.91431,1.91431 0 0 1 1.9179,0.0924 19.48329,19.48329 0 0 1 3.93468,4.03165 l 3.1194,-0.36272 c 0.686,-1.50421 3.42916,-5.94685 12.96618,-9.70164 a 0.53047,0.53047 0 0 1 0.70966,0.37675 l 0.33355,1.48116 a 0.52868,0.52868 0 0 1 -0.31632,0.60553 32.14109,32.14109 0 0 0 -10.292,6.84269 l 11.16083,-1.29782 c 1.16765,1.86593 0.4114,4.93454 0.4114,4.93454 -17.96117,3.45446 -35.1717,3.0124 -37.90617,1.6207 -2.73447,-1.3917 6.18961,-2.91495 6.18961,-2.91495 z" />
  <path
     style="fill:#ed9c8c"
     id="path224"
     d="m 240.53904,326.15441 c 0,0 3.71506,19.4199 2.27181,20.01231 -1.44325,0.59241 -39.15658,2.58029 -32.57,-0.6704 l 10.93168,-4.6997 a 10.82757,10.82757 0 0 0 6.549,-9.73651 l 0.12028,-6.17859 z" />
  <path
     style="fill:#f73943"
     id="path226"
     d="m 211.62747,344.90017 10.42238,-0.42 a 25.85624,25.85624 0 0 0 -2.58914,-2.80235 1.1449,1.1449 0 0 1 0.34644,-1.88361 1.91431,1.91431 0 0 1 1.90546,0.23679 19.48346,19.48346 0 0 1 3.61942,4.31691 l 3.13787,-0.12643 c 0.79745,-1.44818 3.86789,-5.67128 13.66093,-8.69611 a 0.53045,0.53045 0 0 1 0.67922,0.42919 l 0.2209,1.5021 a 0.52869,0.52869 0 0 1 -0.36109,0.57995 32.14092,32.14092 0 0 0 -10.77876,6.047 l 11.22692,-0.45239 c 1.0236,1.94867 0.0381,4.95152 0.0381,4.95152 -18.17055,2.09 -35.29872,0.35123 -37.92045,-1.24274 -2.62173,-1.59397 6.39182,-2.43983 6.39182,-2.43983 z" />
  <path
     style="fill:#0aa8a7;fill-opacity:1"
     id="path228"
     d="m 274.43732,149.86673 c 0,0 15.64476,36.7694 13.06253,84.09171 a 63.77947,63.77947 0 0 0 2.02021,19.70329 l 13.71784,72.034 a 4.84514,4.84514 0 0 1 -3.89975,5.67462 l -11.09645,2.001 a 176.01085,176.01085 0 0 1 -57.42064,0.83527 l -9.36157,-1.40836 a 4.84424,4.84424 0 0 1 -4.11548,-4.49831 c -1.315,-21.83188 -6.93733,-129.323 6.41929,-179.46927 z" />
  <path
     style="fill:#065082"
     id="path230"
     d="m 274.43734,149.86671 a 169.05833,169.05833 0 0 1 8.11255,26.314 219.73218,219.73218 0 0 1 4.46949,27.19324 c 0.46923,4.5747 0.67334,9.16894 0.86694,13.76086 l 0.0601,6.89465 c 0.0232,2.298 -0.13135,4.594 -0.18848,6.89075 -0.0566,2.29993 -0.21606,4.58752 -0.2085,6.87793 a 67.37425,67.37425 0 0 0 1.49146,13.647 c 0.56494,2.22559 0.92578,4.49805 1.34351,6.75513 -0.45679,-2.25086 -0.85523,-4.51025 -1.459,-6.729 a 63.89969,63.89969 0 0 1 -1.2146,-6.78675 63.17336,63.17336 0 0 1 -0.44287,-6.88452 c -0.021,-2.303 0.12549,-4.6012 0.168,-6.89221 0.0435,-2.29358 0.18433,-4.58582 0.14746,-6.87964 l -0.10083,-6.88086 c -0.21948,-4.58227 -0.45312,-9.16455 -0.94434,-13.72668 a 219.35339,219.35339 0 0 0 -4.30127,-27.16871 c -0.98461,-4.48193 -2.15185,-8.92285 -3.435,-13.32861 -1.2657,-4.41107 -2.68049,-8.78399 -4.36458,-13.05658 z" />
  <path
     style="fill:#065082"
     id="path232"
     d="m 238.35898,160.90517 -0.76026,18.2279 -0.83545,18.22437 -0.8374,18.22424 c -0.25855,6.07715 -0.68042,12.14563 -0.48242,18.21545 l 1.54687,36.44861 0.78858,18.22644 0.71264,18.22986 -0.94946,-18.219 -0.87353,-18.22266 c -0.56543,-12.15137 -1.19776,-24.29 -1.7085,-36.4519 -0.17114,-6.09632 0.27881,-12.17713 0.564,-18.24622 l 0.91871,-18.22034 0.92065,-18.22021 z" />
  <polygon
     transform="translate(-75.000389,-124.01983)"
     style="fill:#065082"
     id="polygon234"
     points="324.071,310.979 328.604,328.582 332.98,346.226 335.166,355.048 337.278,363.889 334.936,355.107 332.668,346.305 328.135,328.701 323.76,311.057 321.574,302.235 319.461,293.394 321.802,302.177 " />
  <polygon
     transform="translate(-75.000389,-124.01983)"
     style="fill:#065082"
     id="polygon236"
     points="320.038,319.119 322.312,347.033 324.424,374.96 325.478,388.923 326.456,402.892 325.241,388.941 324.103,374.985 321.829,347.071 319.718,319.145 318.664,305.181 317.685,291.212 318.899,305.163 " />
  <polygon
     transform="translate(-75.000389,-124.01983)"
     style="fill:#065082"
     id="polygon238"
     points="308.832,298.121 306.404,314.769 303.816,331.394 302.52,339.706 301.149,348.006 302.286,339.67 303.498,331.346 305.926,314.697 308.515,298.073 309.811,289.761 311.181,281.461 310.044,289.796 " />
  <path
     style="fill:#0aa8a7;fill-opacity:1"
     id="path240"
     d="m 262.45277,72.360101 c -15.26582,9.06168 -34.8726,33.470829 -40.03967,40.096519 a 4.79594,4.79594 0 0 0 -0.95558,3.71994 c 0.31872,1.95867 0.637,4.09145 0.7269,5.593 0.44875,7.49606 -8.774,57.91824 -6.05822,85.852 0,0 31.35945,-27.01662 46.5069,-51.83308 9.84954,-18.60818 13.27014,-80.745589 13.27014,-80.745589 -2.52344,-5.56113 -13.45047,-2.68279 -13.45047,-2.68279 z" />
  <path
     style="fill:#0aa8a7;fill-opacity:1"
     id="path242"
     d="m 194.75604,71.339831 -11.68365,0.53278 a 1.424,1.424 0 0 1 -1.41179,-1.34039 l -0.74076,-6.34922 14.76219,2.3914 0.34762,3.08464 a 1.45072,1.45072 0 0 1 -1.27361,1.68079 z" />
  <path
     style="fill:#065082"
     id="path244"
     d="m 216.12631,207.6216 q 3.12635,-2.89875 6.19995,-5.85279 l 6.16821,-5.88415 q 6.12964,-5.92365 12.07178,-12.03418 c 3.98438,-4.0481 7.904,-8.1648 11.61524,-12.46363 1.85327,-2.15039 3.66064,-4.3424 5.34326,-6.62756 a 29.6954,29.6954 0 0 0 4.28759,-7.31836 29.81371,29.81371 0 0 1 -4.09545,7.45752 c -1.66089,2.313 -3.45533,4.52429 -5.29053,6.69776 -3.67774,4.34228 -7.561,8.50378 -11.51416,12.59216 q -5.98976,6.07581 -12.19556,11.92822 -3.09594,2.933 -6.22974,5.82459 -3.16076,2.86248 -6.36059,5.68042 z" />
  <path
     style="fill:#065082"
     id="path246"
     d="m 227.95981,134.15736 c 2.31347,-5.06518 4.83667,-10.03393 7.49853,-14.92627 q 3.96387,-7.355 8.3916,-14.45129 a 151.83138,151.83138 0 0 1 9.64649,-13.647999 c 3.48193,-4.32983 7.2207,-8.57 11.83178,-11.73682 l -3.22363,2.649 -2.94751,2.94873 c -1.87451,2.04883 -3.73047,4.121 -5.408,6.33911 A 152.22937,152.22937 0 0 0 244.25859,105.038 q -4.48316,7.03364 -8.51855,14.34729 -2.02223,3.65058 -3.95654,7.34961 c -1.30538,2.45762 -2.59689,4.92356 -3.82369,7.42246 z" />
  <path
     style="fill:#065082"
     id="path248"
     d="m 223.09189,190.71364 a 136.0012,136.0012 0 0 0 15.19946,-19.61206 c 2.27392,-3.46009 4.35815,-7.04126 6.36694,-10.6587 l 2.89917,-5.49035 2.64722,-5.61548 a 166.43454,166.43454 0 0 0 8.74682,-23.21765 c 1.29151,-3.939 2.144,-7.99536 3.12793,-12.01831 0.55,-1.99988 0.83692,-4.05445 1.23218,-6.08753 l 1.12134,-6.1145 -1.00464,6.1355 c -0.35669,2.04138 -0.60522,4.10571 -1.11719,6.11682 -0.9519,4.03577 -1.78442,8.10449 -3.05053,12.05884 a 166.37337,166.37337 0 0 1 -8.6167,23.32886 l -2.69116,5.613 -2.94214,5.48511 c -2.03736,3.613 -4.14942,7.188 -6.45069,10.64026 -2.25854,3.47949 -4.70581,6.83374 -7.23706,10.11853 a 110.51177,110.51177 0 0 1 -8.23095,9.31766 z" />
  <path
     style="fill:#065082"
     id="path250"
     d="m 230.3331,156.79152 q 2.759,-6.11171 5.59155,-12.18848 l 5.708,-12.13318 5.80908,-12.08484 q 2.92383,-6.03351 5.92749,-12.02881 -2.75831,6.11207 -5.59082,12.18885 l -5.70874,12.13269 -5.81005,12.08459 q -2.92345,6.03351 -5.92651,12.02918 z" />
  <rect
     style="fill:#ffba55"
     id="rect252"
     height="70.567398"
     width="42.243279"
     y="104.6385"
     x="243.5253" />
  <path
     style="fill:#f9977a"
     id="path254"
     d="m 272.14077,137.56899 c 0,0 -1.0102,-4.22279 -8.89581,-9.65648 -7.88561,-5.43369 -14.67055,-8.86934 -10.13274,-3.87111 l 3.521,3.75155 c 0,0 -7.58417,-1.32774 -12.03305,-2.51442 a 5.70168,5.70168 0 0 0 -6.34778,2.39463 c -1.1986,1.95067 -0.794,3.74137 4.053,6.09662 7.24927,3.52262 10.828,4.72075 12.87251,5.06668 l 0.0218,0.004 a 24.90247,24.90247 0 0 0 8.54752,0.132 z" />
  <path
     style="fill:#dd765e"
     id="path256"
     d="m 261.14731,128.96117 a 7.17517,7.17517 0 0 1 -1.18042,-0.11316 11.63139,11.63139 0 0 1 -1.1377,-0.24268 c -0.37231,-0.105 -0.74414,-0.20911 -1.10767,-0.34924 a 8.73594,8.73594 0 0 1 -1.08837,-0.46314 5.10249,5.10249 0 0 1 1.19262,0.0239 8.11621,8.11621 0 0 1 1.15381,0.22168 8.58754,8.58754 0 0 1 1.1106,0.37732 5.90266,5.90266 0 0 1 1.05713,0.54529 z" />
  <path
     style="fill:#dd765e"
     id="path258"
     d="m 251.16244,129.59462 a 24.31788,24.31788 0 0 1 -2.82959,-0.537 c -0.93506,-0.21863 -1.85449,-0.49621 -2.76538,-0.80176 a 24.32683,24.32683 0 0 1 -2.67578,-1.07885 13.22027,13.22027 0 0 1 -2.4812,-1.47644 c 1.76,0.76989 3.54321,1.3872 5.34619,2.00036 l 2.70239,0.92554 c 0.90161,0.31202 1.80518,0.62122 2.70337,0.96815 z" />
  <path
     style="fill:#dd765e"
     id="path260"
     d="m 249.84677,132.11098 a 23.41093,23.41093 0 0 1 -3.12354,-0.44751 26.55541,26.55541 0 0 1 -3.05542,-0.80823 17.78733,17.78733 0 0 1 -2.92358,-1.23255 7.44338,7.44338 0 0 1 -2.4917,-1.94958 10.78512,10.78512 0 0 0 2.68872,1.54358 c 0.95264,0.39929 1.9209,0.7677 2.91089,1.08191 1.96997,0.65979 3.97947,1.20666 5.99463,1.81238 z" />
  <path
     style="fill:#dd765e"
     id="path262"
     d="m 248.06186,134.15736 a 17.07132,17.07132 0 0 1 -2.61914,-0.332 22.53777,22.53777 0 0 1 -2.55835,-0.65686 19.53342,19.53342 0 0 1 -2.4585,-0.97949 12.88817,12.88817 0 0 1 -2.25952,-1.37537 c 0.81909,0.33106 1.61914,0.6637 2.43555,0.95972 0.8208,0.28284 1.63427,0.57825 2.4624,0.83716 l 2.4873,0.77893 z" />
  <path
     style="fill:#f9977a"
     id="path264"
     d="m 264.43286,129.36617 29.90521,-7.59658 19.67777,4.11312 c 0,0 0.33372,7.31824 -6.47749,8.56007 -6.81121,1.24183 -41.51377,3.48391 -41.51377,3.48391 z" />
  <path
     style="fill:#b02336"
     id="path266"
     d="m 221.57797,111.03749 c 1.54663,-2.37329 3.24121,-4.63184 4.92358,-6.90015 1.728,-2.23437 3.44287,-4.477659 5.31177,-6.610709 -1.543,2.3706 -3.24,4.630849 -4.92383,6.900139 -1.72925,2.2354 -3.44653,4.48047 -5.31152,6.61072 z" />
  <path
     style="fill:#065082"
     id="path268"
     d="m 216.92416,320.79725 10.73023,0.66517 10.73168,0.61071 q 5.36536,0.312 10.73609,0.53882 c 3.58032,0.15711 7.165,0.16492 10.74731,0.18592 7.165,-0.0184 14.3313,-0.1803 21.46827,-0.70716 a 100.62584,100.62584 0 0 0 10.6394,-1.31067 33.13007,33.13007 0 0 0 5.16528,-1.37829 c 1.62183,-0.64795 3.37744,-1.39991 4.31323,-2.96314 l 0.043,0.0227 a 5.45183,5.45183 0 0 1 -1.864,1.93139 13.60054,13.60054 0 0 1 -2.40576,1.23218 33.428,33.428 0 0 1 -5.1814,1.4989 81.75649,81.75649 0 0 1 -10.67065,1.46509 c -7.15894,0.577 -14.342,0.60449 -21.50952,0.47424 -3.58545,-0.0406 -7.16724,-0.19677 -10.751,-0.2677 q -5.37561,-0.126 -10.74878,-0.35571 c -3.58325,-0.12927 -7.1604,-0.37561 -10.73511,-0.64563 -3.57519,-0.26379 -7.14892,-0.5498 -10.7124,-0.94861 z" />
  <circle
     style="fill:#e5a8a3;fill-opacity:1"
     id="circle296"
     r="1.6400501"
     cy="46.501671"
     cx="185.61075" />
  <path
     style="fill:#cea8a7;fill-opacity:1"
     id="path298"
     d="m 180.12298,46.979111 a 0.59188,0.59188 0 0 1 -0.58808,-0.53173 l -0.475,-4.65177 a 0.5918648,0.5918648 0 0 1 1.17761,-0.12021 l 0.47494,4.65176 a 0.59156,0.59156 0 0 1 -0.52869,0.64877 0.54022,0.54022 0 0 1 -0.0608,0.003 z" />
  <circle
     style="fill:#160b07"
     id="circle300"
     r="4.9967198"
     cy="67.73304"
     cx="258.13547" />
  <circle
     style="fill:#160b07"
     id="circle302"
     r="4.9967198"
     cy="75.486916"
     cx="257.39645" />
  <circle
     style="fill:#160b07"
     id="circle304"
     r="4.9967198"
     cy="82.92411"
     cx="256.61475" />
  <path
     style="fill:#160b07"
     id="path306"
     d="m 252.39975,97.526661 c 0,0 -2.48454,-4.42855 -2.48454,-7.18816 a 4.99673,4.99673 0 1 1 9.99345,0 c 0,2.75961 -7.50891,7.18816 -7.50891,7.18816 z" />
  <path
     style="fill:#f73943"
     id="path308"
     d="m 261.61231,89.021621 a 1.08869,1.08869 0 0 1 -0.23633,-0.0264 l -11.76465,-2.5791 a 1.0997,1.0997 0 1 1 0.4707,-2.14844 l 11.76465,2.5791 a 1.10021,1.10021 0 0 1 -0.23437,2.17481 z" />
  <rect
     style="fill:#935b50"
     id="rect310"
     height="2"
     width="550"
     y="348.54407"
     x="0" />
</svg>
